<svg xmlns="http://www.w3.org/2000/svg" width="1775.63" height="1513.429">
  <path d="m700.04 1168.224 1 2zM291.04 1166.224l.5 4.5h-1zM283.04 1163.224l.5 2.5h-1zM695.04 1162.224l2 3zM690.04 1156.224l3 4zM290.04 1154.224l.5 4.5h-1zM686.04 1151.224l2 3zM683.04 1147.224l1 2zM289.04 1145.224l.5 2.5h-1zM286.04 1144.224l.5 2.5h-1zM679.04 1142.224l2 3zM288.04 1138.224l.5 1.5-2 1zM793.04 1133.224l2 3zM670.04 1130.224l1 2zM789.04 1128.224l2 3zM667.04 1126.224l1 2zM787.04 1125.224l1 2zM664.04 1122.224l1 2zM784.04 1121.224l1 2zM660.04 1117.224l2 3zM657.04 1113.224l1 2zM777.04 1112.224l1 2zM654.04 1109.224l1 2zM772.04 1106.224l2 3zM651.04 1105.224l1 2zM648.04 1101.224l2 3zM764.04 1096.224l2 3zM642.04 1093.224l1 2zM761.04 1092.224l2 3zM639.04 1089.224l1 2zM758.04 1088.224l1 2zM635.04 1084.224l2 3zM754.04 1083.224l2 3zM751.04 1079.224l2 3zM631.04 1079.224l2 3zM749.04 1076.224l1 2zM744.04 1069.224l1 2zM742.04 1066.224l1 2zM740.04 1063.224l1 2zM735.04 1057.224l2 3zM730.04 1051.224l2 3zM727.04 1047.224l1 2zM723.04 1042.224l2 3zM720.04 1038.224l1 2zM716.04 1033.224l2 3zM714.04 1030.224l1 2zM710.04 1025.224l2 3zM707.04 1021.224l2 3zM705.04 1018.224l1 2zM702.04 1014.224l1 2zM699.04 1010.224l1 2zM696.04 1006.224l1 2zM693.04 1002.224l1 2zM690.04 998.224l1 2zM687.04 994.224l1 2zM684.04 990.224l1 2zM681.04 986.224l1 2zM678.04 982.224l2 3zM675.04 978.224l1 2z"/>
  <path fill="#558ab6" stroke="#558ab6" d="m275.79 106.118 59.731 22.727 120.918 56.82 34.964 14.204 8.74 1.42q24.039-19.886 53.904-34.091l21.852-7.102h14.569q15.005 3.977 22.58 14.915l17.483 31.25q10.926 35.512 26.951 66.052l72.842 34.091 39.335-31.25 23.31-9.943 21.852-1.42q18.502 4.687 28.408 17.755 12.82 14.489 20.396 34.092 12.092 27.273 18.939 59.66l2.185 2.13 128.202 61.08q77.94-41.903 160.252-79.546 61.187-28.41 128.202-51.137l52.446-15.625 55.36-11.364h8.741l11.655-2.841h13.111l1.457-1.42h56.817l1.457 1.42h11.654l24.767 4.261 24.766 7.103 21.853 9.943 15.296 13.495L1608.07 327l1.457 22.728-4.37 21.307-11.655 24.148-26.223 34.802q-3.933-1.563-2.914 2.13-31.759 32.245-69.2 58.95l-97.608 62.501q-121.209 68.893-254.218 125.002l-8.741 40.483v7.103l-18.939 79.546q28.263 32.813 49.532 72.445l7.285 21.307v21.307l-10.198 20.597h-2.914q1.603 3.835-2.185 2.84l-10.198 8.524-21.853 9.943-27.68 7.102-14.568 1.42-5.099 3.552-1.457 18.466-2.913 7.102-1.457 14.205-4.37 12.784-5.828 29.83 37.878 61.08 8.74 22.728 2.915 11.364v11.364l-2.914 11.364-7.284 12.074-15.297 11.364-18.94 8.523-29.136 8.522-24.038 4.262-16.025 81.677-2.914 7.102-20.395 93.752-10.198 24.148-13.84 16.335-68.472 39.774-58.273 29.83-2.185-7.813v-28.41l-1.457-1.42v-28.41l-1.457-1.42v-28.41l-1.457-1.42v-29.83l-1.457-1.42v-28.41l-1.456-1.42-1.457-59.66-1.457-1.42v-25.57l-1.457-1.42-1.457-51.137-1.457-1.42v-24.148l-1.457-1.421v-26.989l-1.456-1.42-2.914-76.706-1.457-1.42v-24.149l-1.457-1.42-4.37-115.059-1.457-1.42-2.914-73.865-1.457-1.42-1.456-26.279-42.977 17.046-78.67 36.932-94.694 38.353-64.1 22.728-56.818 17.045-37.877 8.523-2.186 2.13-37.877 132.105-5.828 12.784-24.766 80.967-6.556 10.654-36.42 12.784-75.028-95.882v-17.046l-1.457-1.42V1104l-1.457-1.42-2.913-35.512-1.457-1.42-2.914-44.746-28.408-8.523-22.581-19.176q-3.934-11.79-1.457-29.83l8.741-22.728-40.791-44.034v-2.131q-3.934 1.563-2.914-2.13L1.177 761.666l69.2-36.222 17.481-7.103h7.285l40.791 17.046 129.659 61.08 50.99 21.307 87.41-58.24 58.273-35.511 157.339-86.649 48.804-29.12-8.013-9.233-289.91-234.378-8.013-4.261q1.602-3.836-2.186-2.841L142.49 184.244q1.602-3.836-2.185-2.841l-5.828-7.103z" style="stroke-width:1.43854"/>
  <path d="m1546.13 605.699-1 1-21 1-16 3-33 10c-24 9.667-45 22.333-63 38-21.866 18.8-39.7 41.633-53.5 68.5-6.066 11.933-11.066 24.933-15 39l-6 28-1 21-1 1v18l1 1v13l1 1 1 14 5 22 6 18c10.534 27.133 24.867 50.467 43 70 16.667 18.667 36.5 34.167 59.5 46.5l35 15 22 6h5l12 3h8l1 1h40l1-1h8l22-4 21-6c31-11.333 57.334-27.333 79-48 21.667-20 38.834-44.5 51.5-73.5l10-28 4-17 1-11 1-1v-8l1-1v-24l1-1-1-1v-15l-1-1v-8l-2-7v-5l-9-33c-10.066-26.933-23.733-50.267-41-70-21.066-24.267-47.233-43.433-78.5-57.5-15-6.667-31.666-11.667-50-15l-13-1-1-1h-12l-1-1zm120.877 113.824 3 1 14 14c-.666 1.334 0 1.667 2 1l1 3h2c-.666 2 0 2.667 2 2l11 13-43 45-48 47-93 94c-12.666-8-23.666-17.333-33-28 .667-2 .334-2.666-1-2l-7-8-9-7c.667-2 .334-2.666-1-2l-6-7-3-1-40-42 34-35 7 6c-.666 1.334 0 1.667 2 1l24 24c-.666 1.334 0 1.667 2 1l2 4h2l10 11 2 3 14 13h1v-1l14-15 58-59c1.334.667 1.667.334 1-1z" style="fill:#7dba56;fill-opacity:1"/>
  <path d="M484.5 668q23.6-2.1 32.5 10.5 7.1 7.9 11 19l14 47 98 296 2 3 19 63 2 3 12 39 11 28 6 22 6 15 13 44 13 37 8 29 6.5 16.5 141-44 22-2 15 3 13 6 16.5 14.5 12 24 6 28.5-140.5 44-13 3-3 2-39 11-3 2-52 15-19 7-10 2-39 13-71 21-3 2-10 2q-26 10-55 17l-3 2H500l-9-31.5-1-13-1-1v-14l2-10 5-12 12.5-14.5q12.5-10 29-16l46-13 87.5-28-167-510.5v-3l-17-49v-3l-19-55v-3l-9-26-1-14q2.2-13.3 10.5-20.5z" style="fill:#b18461;fill-opacity:1" transform="translate(622.038 -329.94)"/>
  <path fill="#6b503f" stroke="#6b503f" d="M1602.538 1073.06q3.3-1.1 2.5 1.5l43 58 24 29 28 39.5q2.7-1.1 2 1.5l27 35-1.5 1.5-14 3-19 7-10 2-50 18-25.5-30.5-39-53-22.5-26.5-.5 1.5 18 43 16 32 18 41.5-156.5 48-43-90-.5 12.5 1 1 2 33 1 1v9l1 1v8l1 1 3 31.5-177 52v-6.5l-1-1v-17l-1-1-1-25-1-1v-13l-1-1-2-54-1-1v-11l-1-1-1.5-15.5-1.5 1.5-2 17-2 7v7l-1 1-12 90-7 34.5-53.5 17-51.5 14 11-63.5v-6l3-13 2-18 1-1v-6l1-1 6-46 2-7 4-34q2.3-1.3 1-6l1.5-1.5 204-65 199-60z"/>
</svg>
